<svg width="18" height="19" viewBox="0 0 18 19" fill="none" xmlns="http://www.w3.org/2000/svg">
<path d="M16.5 6.45312C16.5 9.14562 14.3175 11.3281 11.625 11.3281C11.4975 11.3281 11.3625 11.3206 11.235 11.3131C11.0475 8.93563 9.14249 7.03062 6.76499 6.84312C6.75749 6.71562 6.75 6.58063 6.75 6.45312C6.75 3.76063 8.9325 1.57812 11.625 1.57812C14.3175 1.57812 16.5 3.76063 16.5 6.45312Z" stroke="#171717" stroke-width="1.5" stroke-linecap="round" stroke-linejoin="round"/>
<path d="M11.25 11.7031C11.25 14.3956 9.0675 16.5781 6.375 16.5781C3.6825 16.5781 1.5 14.3956 1.5 11.7031C1.5 9.01063 3.6825 6.82812 6.375 6.82812C6.5025 6.82812 6.63749 6.83562 6.76499 6.84312C9.14249 7.03062 11.0475 8.93563 11.235 11.3131C11.2425 11.4406 11.25 11.5756 11.25 11.7031Z" stroke="#171717" stroke-width="1.5" stroke-linecap="round" stroke-linejoin="round"/>
<path d="M5.715 11.0431L6.375 9.82812L7.035 11.0431L8.25 11.7031L7.035 12.3631L6.375 13.5781L5.715 12.3631L4.5 11.7031L5.715 11.0431Z" stroke="#171717" stroke-width="1.5" stroke-linecap="round" stroke-linejoin="round"/>
</svg>
