<svg width="18" height="19" viewBox="0 0 18 19" fill="none" xmlns="http://www.w3.org/2000/svg">
<path d="M6 1.57812V3.82812" stroke="#171717" stroke-width="1.5" stroke-miterlimit="10" stroke-linecap="round" stroke-linejoin="round"/>
<path d="M12 1.57812V3.82812" stroke="#171717" stroke-width="1.5" stroke-miterlimit="10" stroke-linecap="round" stroke-linejoin="round"/>
<path d="M2.625 6.89551H15.375" stroke="#171717" stroke-width="1.5" stroke-miterlimit="10" stroke-linecap="round" stroke-linejoin="round"/>
<path d="M13.5 17.3281C15.1569 17.3281 16.5 15.985 16.5 14.3281C16.5 12.6713 15.1569 11.3281 13.5 11.3281C11.8431 11.3281 10.5 12.6713 10.5 14.3281C10.5 15.985 11.8431 17.3281 13.5 17.3281Z" stroke="#171717" stroke-width="1.5" stroke-miterlimit="10" stroke-linecap="round" stroke-linejoin="round"/>
<path d="M14.6178 14.3652H12.3828" stroke="#171717" stroke-width="1.5" stroke-miterlimit="10" stroke-linecap="round" stroke-linejoin="round"/>
<path d="M13.5 13.2705V15.513" stroke="#171717" stroke-width="1.5" stroke-miterlimit="10" stroke-linecap="round" stroke-linejoin="round"/>
<path d="M15.75 6.45312V12.3481C15.2025 11.7256 14.4 11.3281 13.5 11.3281C11.8425 11.3281 10.5 12.6706 10.5 14.3281C10.5 14.8906 10.6575 15.4231 10.935 15.8731C11.0925 16.1431 11.295 16.3831 11.5275 16.5781H6C3.375 16.5781 2.25 15.0781 2.25 12.8281V6.45312C2.25 4.20312 3.375 2.70312 6 2.70312H12C14.625 2.70312 15.75 4.20312 15.75 6.45312Z" stroke="#171717" stroke-width="1.5" stroke-miterlimit="10" stroke-linecap="round" stroke-linejoin="round"/>
<path d="M8.99588 10.3535H9.00262" stroke="#171717" stroke-width="1.5" stroke-linecap="round" stroke-linejoin="round"/>
<path d="M6.22244 10.3535H6.22918" stroke="#171717" stroke-width="1.5" stroke-linecap="round" stroke-linejoin="round"/>
<path d="M6.22244 12.6035H6.22918" stroke="#171717" stroke-width="1.5" stroke-linecap="round" stroke-linejoin="round"/>
</svg>
