<svg width="24" height="25" viewBox="0 0 24 25" fill="none" xmlns="http://www.w3.org/2000/svg">
<g clip-path="url(#clip0_219_445)">
<path d="M12 24.1162C18.6274 24.1162 24 18.7436 24 12.1162C24 5.48879 18.6274 0.116211 12 0.116211C5.37258 0.116211 0 5.48879 0 12.1162C0 18.7436 5.37258 24.1162 12 24.1162Z" fill="#D80027"/>
<path d="M4.17578 6.37695H19.828V17.8552H4.17578V6.37695Z" fill="#6DA544"/>
<path d="M13.9314 15.5076C12.0584 15.5076 10.54 13.9893 10.54 12.1163C10.54 10.2434 12.0584 8.72501 13.9314 8.72501C14.5153 8.72501 15.0648 8.87266 15.5446 9.13263C14.792 8.39665 13.7628 7.94238 12.627 7.94238C10.3219 7.94238 8.45312 9.8111 8.45312 12.1163C8.45312 14.4214 10.3219 16.2902 12.627 16.2902C13.7628 16.2902 14.792 15.8359 15.5446 15.0999C15.0648 15.36 14.5153 15.5076 13.9314 15.5076Z" fill="#F0F0F0"/>
</g>
<defs>
<clipPath id="clip0_219_445">
<rect width="24" height="24" fill="white" transform="translate(0 0.116211)"/>
</clipPath>
</defs>
</svg>
