<svg width="24" height="25" viewBox="0 0 24 25" fill="none" xmlns="http://www.w3.org/2000/svg">
<g clip-path="url(#clip0_219_2908)">
<path d="M12 24.1162C18.6274 24.1162 24 18.7436 24 12.1162C24 5.48879 18.6274 0.116211 12 0.116211C5.37258 0.116211 0 5.48879 0 12.1162C0 18.7436 5.37258 24.1162 12 24.1162Z" fill="#F0F0F0"/>
<path d="M12.0007 0.116211C7.24316 0.116211 3.13241 2.88488 1.19141 6.89884H22.8099C20.869 2.88488 16.7582 0.116211 12.0007 0.116211Z" fill="#FF9811"/>
<path d="M12.0007 24.1166C16.7582 24.1166 20.869 21.3479 22.81 17.334H1.19141C3.13241 21.3479 7.24316 24.1166 12.0007 24.1166Z" fill="#6DA544"/>
<path d="M11.9981 16.2902C14.3033 16.2902 16.172 14.4214 16.172 12.1163C16.172 9.8111 14.3033 7.94238 11.9981 7.94238C9.69293 7.94238 7.82422 9.8111 7.82422 12.1163C7.82422 14.4214 9.69293 16.2902 11.9981 16.2902Z" fill="#0052B4"/>
<path d="M11.9993 14.7252C13.4401 14.7252 14.608 13.5572 14.608 12.1165C14.608 10.6758 13.4401 9.50781 11.9993 9.50781C10.5586 9.50781 9.39062 10.6758 9.39062 12.1165C9.39062 13.5572 10.5586 14.7252 11.9993 14.7252Z" fill="#F0F0F0"/>
<path d="M11.9987 8.89746L12.8035 10.7227L14.7865 10.507L13.6083 12.1166L14.7865 13.7261L12.8035 13.5104L11.9987 15.3356L11.1939 13.5104L9.21094 13.7261L10.3892 12.1166L9.21094 10.507L11.1939 10.7227L11.9987 8.89746Z" fill="#0052B4"/>
</g>
<defs>
<clipPath id="clip0_219_2908">
<rect width="24" height="24" fill="white" transform="translate(0 0.116211)"/>
</clipPath>
</defs>
</svg>
