<svg width="24" height="25" viewBox="0 0 24 25" fill="none" xmlns="http://www.w3.org/2000/svg">
<g clip-path="url(#clip0_219_2884)">
<path d="M12 24.1162C18.6274 24.1162 24 18.7436 24 12.1162C24 5.48879 18.6274 0.116211 12 0.116211C5.37258 0.116211 0 5.48879 0 12.1162C0 18.7436 5.37258 24.1162 12 24.1162Z" fill="#F0F0F0"/>
<path d="M23.9292 13.4207C23.9292 13.4206 23.9293 13.4205 23.9293 13.4203L10.7693 0.178711C10.1757 0.239227 9.59475 0.343008 9.02986 0.486867C3.83897 1.80851 0 12.1163 0 12.1163C0 12.1163 16.7999 23.3586 18.7165 22.0615C19.1 21.802 19.4677 21.5209 19.8177 21.22L12.0185 13.4207H23.9292Z" fill="#0052B4"/>
<path d="M20.8695 12.1158L9.19898 0.445312C3.92287 1.70705 0 6.45295 0 12.1158C0 18.7432 5.37262 24.1158 12 24.1158C14.5139 24.1158 16.8467 23.3423 18.7748 22.021L8.86955 12.1158H20.8695Z" fill="#D80027"/>
<path d="M11.4116 17.8348L9.94606 17.1454L10.7265 15.7261L9.13508 16.0306L8.93342 14.4229L7.82497 15.6053L6.71652 14.4229L6.51481 16.0306L4.92345 15.7261L5.70387 17.1454L4.23828 17.8348L5.70387 18.5241L4.92345 19.9435L6.51491 19.6391L6.71647 21.2467L7.82497 20.0643L8.93342 21.2467L9.13508 19.6391L10.7264 19.9435L9.94602 18.5242L11.4116 17.8348Z" fill="#F0F0F0"/>
<path d="M10.4323 6.7716L9.36633 6.27027L9.93394 5.23795L8.77645 5.45938L8.62978 4.29004L7.82358 5.15005L7.01737 4.29004L6.87066 5.45938L5.71317 5.23795L6.28083 6.27027L5.21484 6.7716L7.82358 7.29341L10.4323 6.7716Z" fill="#F0F0F0"/>
<path d="M10.9562 6.77148C10.9562 8.50038 9.55466 9.90194 7.82577 9.90194C6.09687 9.90194 4.69531 8.50038 4.69531 6.77148" fill="#F0F0F0"/>
</g>
<defs>
<clipPath id="clip0_219_2884">
<rect width="24" height="24" fill="white" transform="translate(0 0.116211)"/>
</clipPath>
</defs>
</svg>
