<svg width="24" height="25" viewBox="0 0 24 25" fill="none" xmlns="http://www.w3.org/2000/svg">
<g clip-path="url(#clip0_219_1277)">
<path d="M12 24.1162C18.6274 24.1162 24 18.7436 24 12.1162C24 5.48879 18.6274 0.116211 12 0.116211C5.37258 0.116211 0 5.48879 0 12.1162C0 18.7436 5.37258 24.1162 12 24.1162Z" fill="#D80027"/>
<path d="M6.56719 7.41895L7.60312 10.6064H10.9547L8.24531 12.5799L9.28125 15.7674L6.56719 13.7986L3.85313 15.7674L4.89375 12.5799L2.17969 10.6064H5.53125L6.56719 7.41895Z" fill="#FFDA44"/>
<path d="M14.225 18.702L13.4328 17.727L12.2609 18.1816L12.9406 17.127L12.1484 16.1473L13.3625 16.4707L14.0469 15.416L14.1125 16.6723L15.3313 16.9957L14.1547 17.4457L14.225 18.702Z" fill="#FFDA44"/>
<path d="M15.8 15.8426L16.175 14.6426L15.1484 13.916L16.4047 13.8973L16.775 12.6973L17.1828 13.8879L18.4391 13.8738L17.4312 14.6238L17.8344 15.8145L16.8078 15.0879L15.8 15.8426Z" fill="#FFDA44"/>
<path d="M17.9266 8.92344L17.3734 10.0531L18.2734 10.9297L17.0312 10.7516L16.4781 11.8766L16.2625 10.6391L15.0156 10.4609L16.1313 9.875L15.9156 8.63281L16.8156 9.50937L17.9266 8.92344Z" fill="#FFDA44"/>
<path d="M14.2602 5.50195L14.1664 6.75352L15.3336 7.22695L14.1102 7.52695L14.0211 8.7832L13.3602 7.71445L12.1367 8.01445L12.9477 7.05352L12.282 5.98945L13.4492 6.46289L14.2602 5.50195Z" fill="#FFDA44"/>
</g>
<defs>
<clipPath id="clip0_219_1277">
<rect width="24" height="24" fill="white" transform="translate(0 0.116211)"/>
</clipPath>
</defs>
</svg>
