<svg width="24" height="24" viewBox="0 0 24 24" fill="none" xmlns="http://www.w3.org/2000/svg">
<path d="M3 3.64272C3 3.47226 3.06772 3.30878 3.18825 3.18825C3.30879 3.06771 3.47227 3 3.64273 3H4.20577C5.1403 3 5.67763 3.60801 5.98871 4.21474C6.20081 4.62994 6.35378 5.1364 6.48104 5.57602H19.7149C19.9135 5.57608 20.1095 5.62216 20.2873 5.71066C20.4651 5.79916 20.62 5.92766 20.7398 6.08607C20.8596 6.24449 20.9411 6.42852 20.9778 6.62372C21.0146 6.81891 21.0056 7.01996 20.9515 7.2111L19.0285 13.9918C18.8755 14.5298 18.5513 15.0032 18.1049 15.3402C17.6586 15.6773 17.1145 15.8596 16.5552 15.8595H10.0264C9.46239 15.8597 8.91401 15.6745 8.4657 15.3323C8.01738 14.9902 7.69401 14.5101 7.54541 13.9661L6.72014 10.9389L6.70728 10.8977L5.38325 6.40127L5.25471 5.96808C5.12616 5.52332 5.01304 5.12997 4.84336 4.79961C4.63897 4.40113 4.45129 4.28544 4.20577 4.28544H3.64273C3.47227 4.28544 3.30879 4.21772 3.18825 4.09719C3.06772 3.97666 3 3.81318 3 3.64272ZM7.94647 10.5507L8.78588 13.6306C8.8603 13.9025 9.02204 14.1424 9.24619 14.3133C9.47033 14.4843 9.74446 14.5768 10.0264 14.5767H16.5565C16.836 14.5764 17.1078 14.485 17.3308 14.3164C17.5537 14.1477 17.7156 13.911 17.7919 13.6421L19.7149 6.86146H6.86025L7.94647 10.5507ZM12.0021 19.0718C12.0021 19.5832 11.799 20.0737 11.4374 20.4353C11.0758 20.7969 10.5853 21 10.0739 21C9.56253 21 9.07208 20.7969 8.71048 20.4353C8.34887 20.0737 8.14572 19.5832 8.14572 19.0718C8.14572 18.5605 8.34887 18.07 8.71048 17.7084C9.07208 17.3468 9.56253 17.1437 10.0739 17.1437C10.5853 17.1437 11.0758 17.3468 11.4374 17.7084C11.799 18.07 12.0021 18.5605 12.0021 19.0718ZM10.7167 19.0718C10.7167 18.9014 10.6489 18.7379 10.5284 18.6174C10.4079 18.4968 10.2444 18.4291 10.0739 18.4291C9.90346 18.4291 9.73997 18.4968 9.61944 18.6174C9.4989 18.7379 9.43119 18.9014 9.43119 19.0718C9.43119 19.2423 9.4989 19.4058 9.61944 19.5263C9.73997 19.6468 9.90346 19.7146 10.0739 19.7146C10.2444 19.7146 10.4079 19.6468 10.5284 19.5263C10.6489 19.4058 10.7167 19.2423 10.7167 19.0718ZM18.4295 19.0718C18.4295 19.5832 18.2263 20.0737 17.8647 20.4353C17.5031 20.7969 17.0126 21 16.5013 21C15.9899 21 15.4994 20.7969 15.1378 20.4353C14.7762 20.0737 14.5731 19.5832 14.5731 19.0718C14.5731 18.5605 14.7762 18.07 15.1378 17.7084C15.4994 17.3468 15.9899 17.1437 16.5013 17.1437C17.0126 17.1437 17.5031 17.3468 17.8647 17.7084C18.2263 18.07 18.4295 18.5605 18.4295 19.0718ZM17.144 19.0718C17.144 18.9014 17.0763 18.7379 16.9557 18.6174C16.8352 18.4968 16.6717 18.4291 16.5013 18.4291C16.3308 18.4291 16.1673 18.4968 16.0468 18.6174C15.9262 18.7379 15.8585 18.9014 15.8585 19.0718C15.8585 19.2423 15.9262 19.4058 16.0468 19.5263C16.1673 19.6468 16.3308 19.7146 16.5013 19.7146C16.6717 19.7146 16.8352 19.6468 16.9557 19.5263C17.0763 19.4058 17.144 19.2423 17.144 19.0718Z" fill="black"/>
</svg>
