<svg width="18" height="19" viewBox="0 0 18 19" fill="none" xmlns="http://www.w3.org/2000/svg">
<path d="M9 16.5781C13.1421 16.5781 16.5 13.2203 16.5 9.07812C16.5 4.93599 13.1421 1.57812 9 1.57812C4.85786 1.57812 1.5 4.93599 1.5 9.07812C1.5 13.2203 4.85786 16.5781 9 16.5781Z" stroke="#171717" stroke-width="1.5" stroke-linecap="round" stroke-linejoin="round"/>
<path d="M5.99922 2.32812H6.74922C5.28672 6.70813 5.28672 11.4481 6.74922 15.8281H5.99922" stroke="#171717" stroke-width="1.5" stroke-linecap="round" stroke-linejoin="round"/>
<path d="M11.25 2.32812C12.7125 6.70813 12.7125 11.4481 11.25 15.8281" stroke="#171717" stroke-width="1.5" stroke-linecap="round" stroke-linejoin="round"/>
<path d="M2.25 12.0781V11.3281C6.63 12.7906 11.37 12.7906 15.75 11.3281V12.0781" stroke="#171717" stroke-width="1.5" stroke-linecap="round" stroke-linejoin="round"/>
<path d="M2.25 6.82832C6.63 5.36582 11.37 5.36582 15.75 6.82832" stroke="#171717" stroke-width="1.5" stroke-linecap="round" stroke-linejoin="round"/>
</svg>
