<svg width="100" height="101" viewBox="0 0 100 101" fill="none" xmlns="http://www.w3.org/2000/svg">
<path fill-rule="evenodd" clip-rule="evenodd" d="M15.3034 16.7446C15.4682 17.042 19.2319 21.0925 23.5363 25.6041C24.5884 26.707 27.5262 29.8406 30.0644 32.5674C32.6025 35.2941 35.4916 38.3813 36.4844 39.4277C37.4774 40.4739 38.9504 42.0403 39.7582 42.9087C42.4342 45.7851 44.3663 47.8395 46.3023 49.8669C48.4523 52.1184 53.6253 57.6247 57.5935 61.8855C60.004 64.4739 61.8857 66.4726 65.5853 70.3739C66.3665 71.1977 67.2298 71.8918 67.6422 72.0279C69.1941 72.5401 70.6711 71.3625 70.6728 69.6119C70.6739 68.641 70.7336 68.7043 62.5513 61.0374C59.6504 58.3192 53.9542 52.96 49.8931 49.1279C45.8319 45.2956 40.1357 39.9355 37.2348 37.2163C34.334 34.4971 31.2513 31.6028 30.3846 30.7847C29.5177 29.9667 27.9988 28.5349 27.0091 27.603C26.0192 26.6711 24.4025 25.1475 23.4163 24.2173C22.43 23.2872 20.8652 21.8186 19.9388 20.9538C19.0127 20.0891 18.0551 19.1918 17.811 18.9598C15.7492 16.999 15.1525 16.472 15.3034 16.7446ZM31.8551 21.8956C31.8551 22.0986 32.4715 22.8038 35.7414 26.3401C37.0268 27.7306 38.5534 29.391 39.1336 30.0296C39.7137 30.6684 40.758 31.7977 41.4542 32.5393C42.1504 33.2809 42.815 33.9946 42.931 34.1256C43.408 34.6638 47.8739 39.522 49.0618 40.7952C49.7656 41.5494 51.095 42.9745 52.016 43.9619C52.9369 44.9494 55.162 47.3638 56.9606 49.3273C58.7591 51.2908 60.903 53.6159 61.7247 54.4939C62.5464 55.3722 64.8466 57.8623 66.8363 60.0275C68.826 62.1929 70.7061 64.1627 71.0142 64.4051C71.7496 64.9836 73.0469 64.9874 73.8532 64.4133C74.6464 63.8484 75.0116 62.587 74.6344 61.7146C74.4865 61.3728 72.7992 59.6439 70.8846 57.8728C68.9701 56.1015 65.5998 52.9787 63.3952 50.9332C61.1905 48.8874 56.9658 44.9891 54.007 42.2699C51.0481 39.5507 47.2473 36.0418 45.5608 34.472C43.8743 32.9024 40.7414 30.0127 38.5988 28.0509C36.4561 26.0889 34.554 24.3325 34.3715 24.1479C33.1017 22.8621 31.8551 21.7465 31.8551 21.8956ZM46.0078 26.7775C46.3076 27.119 50.0576 31.1899 54.3412 35.8237C58.6247 40.4576 62.699 44.8798 63.3952 45.6507C66.2935 48.8604 71.8473 54.8735 72.5017 55.5104C73.1958 56.1859 73.9709 56.3747 74.7781 56.065C75.2705 55.876 75.7918 54.7555 75.65 54.1908C75.5834 53.9252 73.9855 52.2992 72.0992 50.5777C70.2129 48.8564 67.9089 46.7342 66.9795 45.8621C64.8055 43.822 61.3433 40.6186 55.8002 35.519C53.3635 33.2773 50.373 30.5218 49.1547 29.3958C47.9363 28.2701 46.6072 27.0804 46.2011 26.7526L45.4627 26.1564L46.0078 26.7775ZM60.4416 33.4511C60.9057 33.9906 62.2823 35.5104 63.5006 36.8283C64.719 38.1463 67.1213 40.7566 68.839 42.629C70.557 44.5013 72.0888 46.0817 72.2433 46.1408C72.5935 46.2754 73.4163 45.719 73.4163 45.3477C73.4163 45.1104 71.5812 43.3279 67.1926 39.3026C66.6125 38.7705 64.9637 37.2509 63.5285 35.9258C62.0935 34.6009 60.622 33.2813 60.2585 32.9935C59.6656 32.5241 59.6844 32.5711 60.4416 33.4511ZM20.8338 33.9697C21.6123 34.9114 23.953 37.4595 35.5336 49.9724C36.715 51.2488 38.8093 53.5273 40.1876 55.0357C41.5661 56.5441 43.8445 59.0125 45.2506 60.5209C48.4281 63.9292 47.9595 63.4216 54.1585 70.1733C59.9458 76.4766 60.1836 76.6562 61.7395 75.8963C62.8652 75.3465 63.4006 74.2422 63.0766 73.1389C62.8464 72.3547 62.1082 71.6275 55.2236 65.4032C54.7285 64.9555 53.2329 63.579 51.9 62.3441C50.5671 61.1093 48.7633 59.4401 47.8916 58.6349C47.0198 57.8296 45.5428 56.453 44.6095 55.5758C43.676 54.6986 41.8743 53.0315 40.6055 51.8711C39.3367 50.7108 37.6312 49.1444 36.8152 48.3901C35.9994 47.6359 34.2481 46.022 32.9234 44.8036C31.5985 43.5853 29.7958 41.9176 28.9169 41.0973C26.4899 38.8323 22.2059 34.8988 21.0057 33.8332L19.9363 32.8838L20.8338 33.9697ZM24.3855 46.7182C25.957 48.4576 30.4114 53.329 32.377 55.4576C38.6758 62.279 40.6207 64.3882 45.2268 69.3927C47.9979 72.4036 50.539 75.1281 50.8736 75.4471C52.077 76.5948 53.796 75.93 53.796 74.3171C53.796 73.511 54.9082 74.6112 42.5091 63.1534C39.9563 60.7944 34.9466 56.164 31.3764 52.8633C27.8063 49.5629 24.626 46.6673 24.3089 46.429C23.7627 46.0182 23.7667 46.0332 24.3855 46.7182ZM31.5644 60.8901C32.0329 61.3832 33.4481 62.926 34.7091 64.3184C35.9701 65.7108 38.0095 67.9418 39.2414 69.2762C40.473 70.6106 41.7985 72.0585 42.1869 72.4935C42.9061 73.299 43.5855 73.4952 44.0492 73.0315C44.1884 72.8922 44.3023 72.6275 44.3023 72.4433C44.3023 72.2589 42.5319 70.4979 40.3682 68.5298C38.2042 66.5617 35.2091 63.8357 33.712 62.4724C30.9365 59.9446 30.034 59.2796 31.5644 60.8901Z" fill="white"/>
</svg>
