<svg width="39" height="38" viewBox="0 0 39 38" fill="none" xmlns="http://www.w3.org/2000/svg">
<path fill-rule="evenodd" clip-rule="evenodd" d="M6.65677 6.42748C6.71874 6.53936 8.13436 8.06282 9.75335 9.75974C10.1491 10.1746 11.254 11.3532 12.2087 12.3788C13.1634 13.4044 14.25 14.5655 14.6234 14.9591C14.9969 15.3526 15.551 15.9418 15.8548 16.2684C16.8613 17.3503 17.588 18.123 18.3162 18.8856C19.1248 19.7324 21.0705 21.8034 22.563 23.406C23.4697 24.3796 24.1774 25.1313 25.5689 26.5987C25.8628 26.9086 26.1875 27.1696 26.3426 27.2208C26.9263 27.4135 27.4818 26.9705 27.4825 26.3121C27.4829 25.9469 27.5053 25.9707 24.4278 23.087C23.3367 22.0647 21.1942 20.0489 19.6667 18.6076C18.1392 17.1662 15.9968 15.1501 14.9057 14.1274C13.8146 13.1046 12.6551 12.016 12.3292 11.7083C12.0031 11.4006 11.4318 10.8621 11.0595 10.5116C10.6872 10.1611 10.0792 9.58802 9.7082 9.23817C9.33724 8.88831 8.74869 8.33595 8.40026 8.01069C8.05191 7.68543 7.69174 7.34795 7.59993 7.26066C6.82443 6.52318 6.60003 6.32496 6.65677 6.42748ZM12.8822 8.36491C12.8822 8.44125 13.1141 8.70652 14.344 10.0366C14.8274 10.5596 15.4016 11.1841 15.6198 11.4243C15.8381 11.6646 16.2308 12.0893 16.4927 12.3682C16.7546 12.6472 17.0045 12.9156 17.0482 12.9649C17.2276 13.1673 18.9073 14.9946 19.3541 15.4735C19.6188 15.7572 20.1188 16.2932 20.4652 16.6645C20.8116 17.036 21.6485 17.9441 22.325 18.6826C23.0014 19.4211 23.8078 20.2956 24.1169 20.6259C24.426 20.9562 25.2911 21.8928 26.0395 22.7072C26.7878 23.5216 27.495 24.2625 27.6109 24.3537C27.8875 24.5713 28.3754 24.5727 28.6787 24.3568C28.977 24.1443 29.1144 23.6699 28.9725 23.3417C28.9169 23.2132 28.2822 22.5629 27.5621 21.8968C26.842 21.2305 25.5744 20.056 24.7452 19.2866C23.916 18.5171 22.327 17.0509 21.2141 16.0281C20.1012 15.0054 18.6716 13.6856 18.0373 13.0952C17.4029 12.5048 16.2246 11.4179 15.4187 10.68C14.6128 9.94209 13.8974 9.28149 13.8287 9.21206C13.3511 8.72842 12.8822 8.30881 12.8822 8.36491ZM18.2054 10.2011C18.3182 10.3296 19.7286 11.8607 21.3398 13.6036C22.9509 15.3465 24.4833 17.0098 24.7452 17.2997C25.8353 18.507 27.9242 20.7686 28.1704 21.0082C28.4314 21.2623 28.723 21.3333 29.0266 21.2168C29.2118 21.1457 29.4078 20.7243 29.3545 20.5119C29.3294 20.412 28.7284 19.8004 28.019 19.1529C27.3095 18.5055 26.4429 17.7073 26.0934 17.3792C25.2756 16.6119 23.9734 15.4071 21.8886 13.489C20.9721 12.6458 19.8473 11.6094 19.389 11.1859C18.9308 10.7625 18.4308 10.315 18.2781 10.1917L18.0004 9.96748L18.2054 10.2011ZM23.6343 12.7112C23.8088 12.9141 24.3266 13.4857 24.7849 13.9814C25.2431 14.4771 26.1467 15.459 26.7927 16.1632C27.4389 16.8674 28.0151 17.4618 28.0732 17.4841C28.2049 17.5347 28.5143 17.3254 28.5143 17.1858C28.5143 17.0965 27.8242 16.4261 26.1735 14.9121C25.9553 14.7119 25.3352 14.1404 24.7953 13.642C24.2556 13.1437 23.7021 12.6473 23.5654 12.5391C23.3424 12.3625 23.3495 12.3802 23.6343 12.7112ZM8.73687 12.9062C9.02967 13.2605 9.91007 14.2189 14.2658 18.9252C14.7102 19.4053 15.4979 20.2623 16.0163 20.8297C16.5348 21.397 17.3917 22.3254 17.9206 22.8928C19.1157 24.1747 18.9395 23.9838 21.271 26.5232C23.4478 28.8941 23.5372 28.9616 24.1224 28.6758C24.5459 28.469 24.7472 28.0537 24.6254 27.6387C24.5388 27.3437 24.2611 27.0702 21.6717 24.7291C21.4854 24.5607 20.9229 24.043 20.4216 23.5785C19.9203 23.1141 19.2418 22.4863 18.9139 22.1834C18.5861 21.8805 18.0305 21.3627 17.6795 21.0328C17.3283 20.7029 16.6507 20.0758 16.1735 19.6394C15.6963 19.203 15.0548 18.6138 14.7479 18.3301C14.441 18.0464 13.7823 17.4394 13.2841 16.9811C12.7857 16.5229 12.1077 15.8956 11.7771 15.5871C10.8643 14.7352 9.25297 13.2557 8.80154 12.8549L8.39931 12.4978L8.73687 12.9062ZM10.0727 17.7012C10.6638 18.3555 12.3392 20.1877 13.0785 20.9884C15.4476 23.554 16.1792 24.3474 17.9116 26.2296C18.9539 27.3621 19.9097 28.3869 20.0356 28.5068C20.4882 28.9385 21.1347 28.6885 21.1347 28.0818C21.1347 27.7786 21.5531 28.1925 16.8895 23.8829C15.9293 22.9956 14.045 21.254 12.7022 20.0126C11.3594 18.7712 10.1632 17.6821 10.0439 17.5925C9.8385 17.438 9.84 17.4436 10.0727 17.7012ZM12.7729 23.0316C12.9491 23.2171 13.4814 23.7974 13.9557 24.3211C14.43 24.8448 15.1971 25.6839 15.6604 26.1858C16.1236 26.6877 16.6222 27.2323 16.7683 27.3959C17.0388 27.6989 17.2943 27.7727 17.4687 27.5983C17.5211 27.5459 17.5639 27.4463 17.5639 27.377C17.5639 27.3077 16.898 26.6454 16.0842 25.9051C15.2703 25.1648 14.1438 24.1395 13.5807 23.6268C12.5367 22.676 12.1973 22.4259 12.7729 23.0316Z" fill="#374375"/>
</svg>
