<svg width="100" height="100" viewBox="0 0 100 100" fill="none" xmlns="http://www.w3.org/2000/svg">
<path fill-rule="evenodd" clip-rule="evenodd" d="M15.3034 16.2446C15.4682 16.542 19.2319 20.5925 23.5363 25.1041C24.5884 26.207 27.5262 29.3406 30.0644 32.0674C32.6025 34.7941 35.4916 37.8813 36.4844 38.9277C37.4774 39.9739 38.9504 41.5403 39.7582 42.4087C42.4342 45.2851 44.3663 47.3395 46.3023 49.3669C48.4523 51.6184 53.6253 57.1247 57.5935 61.3855C60.004 63.9739 61.8857 65.9726 65.5853 69.8739C66.3665 70.6977 67.2298 71.3918 67.6422 71.5279C69.1941 72.0401 70.6711 70.8625 70.6728 69.1119C70.6739 68.141 70.7336 68.2043 62.5513 60.5374C59.6504 57.8192 53.9542 52.46 49.8931 48.6279C45.8319 44.7956 40.1357 39.4355 37.2348 36.7163C34.334 33.9971 31.2513 31.1028 30.3846 30.2847C29.5177 29.4667 27.9988 28.0349 27.0091 27.103C26.0192 26.1711 24.4025 24.6475 23.4163 23.7173C22.43 22.7872 20.8652 21.3186 19.9388 20.4538C19.0127 19.5891 18.0551 18.6918 17.811 18.4598C15.7492 16.499 15.1525 15.972 15.3034 16.2446ZM31.8551 21.3956C31.8551 21.5986 32.4715 22.3038 35.7414 25.8401C37.0268 27.2306 38.5534 28.891 39.1336 29.5296C39.7137 30.1684 40.758 31.2977 41.4542 32.0393C42.1504 32.7809 42.815 33.4946 42.931 33.6256C43.408 34.1638 47.8739 39.022 49.0618 40.2952C49.7656 41.0494 51.095 42.4745 52.016 43.4619C52.9369 44.4494 55.162 46.8638 56.9606 48.8273C58.7591 50.7908 60.903 53.1159 61.7247 53.9939C62.5464 54.8722 64.8466 57.3623 66.8363 59.5275C68.826 61.6929 70.7061 63.6627 71.0142 63.9051C71.7496 64.4836 73.0469 64.4874 73.8532 63.9133C74.6464 63.3484 75.0116 62.087 74.6344 61.2146C74.4865 60.8728 72.7992 59.1439 70.8846 57.3728C68.9701 55.6015 65.5998 52.4787 63.3952 50.4332C61.1905 48.3874 56.9658 44.4891 54.007 41.7699C51.0481 39.0507 47.2473 35.5418 45.5608 33.972C43.8743 32.4024 40.7414 29.5127 38.5988 27.5509C36.4561 25.5889 34.554 23.8325 34.3715 23.6479C33.1017 22.3621 31.8551 21.2465 31.8551 21.3956ZM46.0078 26.2775C46.3076 26.619 50.0576 30.6899 54.3412 35.3237C58.6247 39.9576 62.699 44.3798 63.3952 45.1507C66.2935 48.3604 71.8473 54.3735 72.5017 55.0104C73.1958 55.6859 73.9709 55.8747 74.7781 55.565C75.2705 55.376 75.7918 54.2555 75.65 53.6908C75.5834 53.4252 73.9855 51.7992 72.0992 50.0777C70.2129 48.3564 67.9089 46.2342 66.9795 45.3621C64.8055 43.322 61.3433 40.1186 55.8002 35.019C53.3635 32.7773 50.373 30.0218 49.1547 28.8958C47.9363 27.7701 46.6072 26.5804 46.2011 26.2526L45.4627 25.6564L46.0078 26.2775ZM60.4416 32.9511C60.9057 33.4906 62.2823 35.0104 63.5006 36.3283C64.719 37.6463 67.1213 40.2566 68.839 42.129C70.557 44.0013 72.0888 45.5817 72.2433 45.6408C72.5935 45.7754 73.4163 45.219 73.4163 44.8477C73.4163 44.6104 71.5812 42.8279 67.1926 38.8026C66.6125 38.2705 64.9637 36.7509 63.5285 35.4258C62.0935 34.1009 60.622 32.7813 60.2585 32.4935C59.6656 32.0241 59.6844 32.0711 60.4416 32.9511ZM20.8338 33.4697C21.6123 34.4114 23.953 36.9595 35.5336 49.4724C36.715 50.7488 38.8093 53.0273 40.1876 54.5357C41.5661 56.0441 43.8445 58.5125 45.2506 60.0209C48.4281 63.4292 47.9595 62.9216 54.1585 69.6733C59.9458 75.9766 60.1836 76.1562 61.7395 75.3963C62.8652 74.8465 63.4006 73.7422 63.0766 72.6389C62.8464 71.8547 62.1082 71.1275 55.2236 64.9032C54.7285 64.4555 53.2329 63.079 51.9 61.8441C50.5671 60.6093 48.7633 58.9401 47.8916 58.1349C47.0198 57.3296 45.5428 55.953 44.6095 55.0758C43.676 54.1986 41.8743 52.5315 40.6055 51.3711C39.3367 50.2108 37.6312 48.6444 36.8152 47.8901C35.9994 47.1359 34.2481 45.522 32.9234 44.3036C31.5985 43.0853 29.7958 41.4176 28.9169 40.5973C26.4899 38.3323 22.2059 34.3988 21.0057 33.3332L19.9363 32.3838L20.8338 33.4697ZM24.3855 46.2182C25.957 47.9576 30.4114 52.829 32.377 54.9576C38.6758 61.779 40.6207 63.8882 45.2268 68.8927C47.9979 71.9036 50.539 74.6281 50.8736 74.9471C52.077 76.0948 53.796 75.43 53.796 73.8171C53.796 73.011 54.9082 74.1112 42.5091 62.6534C39.9563 60.2944 34.9466 55.664 31.3764 52.3633C27.8063 49.0629 24.626 46.1673 24.3089 45.929C23.7627 45.5182 23.7667 45.5332 24.3855 46.2182ZM31.5644 60.3901C32.0329 60.8832 33.4481 62.426 34.7091 63.8184C35.9701 65.2108 38.0095 67.4418 39.2414 68.7762C40.473 70.1106 41.7985 71.5585 42.1869 71.9935C42.9061 72.799 43.5855 72.9952 44.0492 72.5315C44.1884 72.3922 44.3023 72.1275 44.3023 71.9433C44.3023 71.7589 42.5319 69.9979 40.3682 68.0298C38.2042 66.0617 35.2091 63.3357 33.712 61.9724C30.9365 59.4446 30.034 58.7796 31.5644 60.3901Z" fill="#374375"/>
</svg>
