<svg width="51" height="36" viewBox="0 0 51 36" fill="none" xmlns="http://www.w3.org/2000/svg">
<rect x="1.11029" y="1.17865" width="48.2713" height="33.6436" rx="5.11968" fill="white"/>
<rect x="1.11029" y="1.17865" width="48.2713" height="33.6436" rx="5.11968" stroke="#F9F7F6" stroke-width="1.46277"/>
<path d="M15.7629 7.76172H23.6007C24.6947 7.76172 25.3752 8.67972 25.12 9.80972L21.4709 25.9372C21.2134 27.0633 20.118 27.9821 19.0232 27.9821H11.1862C10.0936 27.9821 9.41159 27.0633 9.66682 25.9372L13.3174 9.80972C13.5726 8.67972 14.6675 7.76172 15.7629 7.76172Z" fill="#E21836"/>
<path d="M22.9499 7.76074H31.9631C33.057 7.76074 32.5638 8.67874 32.3064 9.80874L28.658 25.9363C28.402 27.0623 28.4818 27.9811 27.3856 27.9811H18.3724C17.2762 27.9811 16.5978 27.0623 16.8554 25.9363L20.5036 9.80874C20.7627 8.67874 21.8552 7.76074 22.9499 7.76074Z" fill="#00447C"/>
<path d="M31.6058 7.76074H39.4435C40.5392 7.76074 41.2196 8.67874 40.9623 9.80874L37.3138 25.9363C37.0563 27.0623 35.9601 27.9811 34.8647 27.9811H27.0306C25.9344 27.9811 25.2545 27.0623 25.5112 25.9363L29.1603 9.80874C29.4155 8.67874 30.5096 7.76074 31.6058 7.76074Z" fill="#007B84"/>
<path d="M17.8091 12.9289C17.0031 12.9373 16.765 12.9289 16.689 12.9104C16.6598 13.0534 16.1159 15.6361 16.1143 15.6382C15.9972 16.1607 15.912 16.5332 15.6226 16.7737C15.4583 16.9136 15.2665 16.981 15.0441 16.981C14.6867 16.981 14.4785 16.7983 14.4435 16.4518L14.4368 16.3328C14.4368 16.3328 14.5457 15.6329 14.5457 15.629C14.5457 15.629 15.1165 13.2754 15.2187 12.9643C15.2241 12.9466 15.2256 12.9373 15.227 12.9289C14.1159 12.9389 13.9189 12.9289 13.9054 12.9104C13.8979 12.9357 13.8704 13.0817 13.8704 13.0817L13.2875 15.7344L13.2375 15.9594L13.1406 16.6953C13.1406 16.9136 13.1823 17.0917 13.2652 17.2424C13.5307 17.72 14.2882 17.7916 14.7167 17.7916C15.2688 17.7916 15.7867 17.6709 16.1367 17.4504C16.7442 17.0809 16.9031 16.5033 17.0449 15.99L17.1106 15.7267C17.1106 15.7267 17.6986 13.2823 17.7985 12.9643C17.8024 12.9466 17.8039 12.9373 17.8091 12.9289ZM19.8097 14.9008C19.668 14.9008 19.4089 14.9362 19.1763 15.0536C19.0918 15.0983 19.012 15.1498 18.9277 15.2011L19.0038 14.9185L18.9621 14.8709C18.4687 14.9738 18.3582 14.9876 17.9024 15.0536L17.8642 15.0798C17.8113 15.5315 17.7643 15.8711 17.5681 16.7591C17.4934 17.0863 17.4158 17.4167 17.3381 17.7431L17.3591 17.7846C17.8262 17.7593 17.9679 17.7593 18.3739 17.7661L18.4068 17.7294C18.4583 17.4574 18.465 17.3937 18.5793 16.8428C18.6329 16.5817 18.7449 16.0078 18.8001 15.8035C18.9015 15.7551 19.0017 15.7075 19.0972 15.7075C19.3247 15.7075 19.297 15.9119 19.2882 15.9933C19.2785 16.1299 19.1956 16.5764 19.1105 16.9596L19.0538 17.207C19.0143 17.3897 18.9709 17.5673 18.9313 17.7484L18.9485 17.7846C19.4089 17.7593 19.5494 17.7593 19.9425 17.7661L19.9888 17.7294C20.0598 17.3046 20.0806 17.1909 20.2067 16.5724L20.2702 16.2883C20.3934 15.7321 20.4553 15.4501 20.362 15.2204C20.2635 14.963 20.027 14.9008 19.8097 14.9008ZM22.0448 15.4831C21.8 15.5315 21.644 15.5637 21.4888 15.5846C21.335 15.61 21.1851 15.633 20.9486 15.6668L20.9298 15.6843L20.9127 15.6983C20.888 15.8796 20.8708 16.0363 20.8382 16.2206C20.8104 16.4111 20.7678 16.6277 20.6985 16.9388C20.6448 17.1769 20.6171 17.2599 20.5866 17.3437C20.5567 17.4275 20.5239 17.5089 20.4635 17.7431L20.4777 17.7647L20.4895 17.7846C20.7105 17.7738 20.8552 17.7661 21.0038 17.7647C21.1522 17.7592 21.306 17.7647 21.544 17.7661L21.5649 17.7486L21.5872 17.7293C21.6216 17.5181 21.6268 17.4613 21.6478 17.3583C21.6686 17.2477 21.7045 17.0947 21.7926 16.6861C21.8342 16.4941 21.8806 16.3028 21.9238 16.1069C21.9687 15.9118 22.0157 15.7197 22.0604 15.5278L22.0537 15.5046L22.0448 15.4831ZM22.05 14.698C21.8276 14.5629 21.4373 14.6058 21.1746 14.7924C20.9127 14.9753 20.8829 15.2349 21.1045 15.3718C21.3231 15.5031 21.7149 15.464 21.9753 15.2758C22.2366 15.089 22.2693 14.8317 22.05 14.698ZM23.3948 17.8269C23.8447 17.8269 24.3059 17.6993 24.653 17.3206C24.92 17.0134 25.0425 16.5563 25.0849 16.3681C25.223 15.7443 25.1155 15.4531 24.9804 15.2757C24.7752 15.0053 24.4126 14.9186 24.0365 14.9186C23.8103 14.9186 23.2716 14.9416 22.8507 15.341C22.5485 15.6291 22.4088 16.0201 22.3246 16.3949C22.2396 16.7768 22.1418 17.4643 22.756 17.7202C22.9455 17.8039 23.2187 17.8269 23.3948 17.8269ZM23.3596 16.4234C23.4634 15.951 23.5858 15.5546 23.8984 15.5546C24.1433 15.5546 24.161 15.8496 24.0522 16.3235C24.0327 16.4287 23.9433 16.8199 23.8223 16.9864C23.7379 17.1093 23.638 17.1839 23.5276 17.1839C23.4947 17.1839 23.2993 17.1839 23.2962 16.8852C23.2947 16.7377 23.3239 16.587 23.3596 16.4234ZM26.2096 17.7662L26.2447 17.7294C26.2946 17.4574 26.3028 17.3935 26.4132 16.8429C26.4684 16.5817 26.5827 16.0079 26.6363 15.8036C26.738 15.755 26.8364 15.7074 26.9349 15.7074C27.1609 15.7074 27.1334 15.9117 27.1244 15.9931C27.1162 16.13 27.0333 16.5762 26.9468 16.9595L26.8931 17.2069C26.852 17.3898 26.8073 17.5672 26.7678 17.7485L26.785 17.7847C27.2469 17.7593 27.382 17.7593 27.7774 17.7662L27.8252 17.7294C27.8945 17.3044 27.9132 17.1908 28.0432 16.5725L28.1051 16.2881C28.2288 15.732 28.2915 15.4502 28.1998 15.2205C28.0984 14.963 27.8603 14.9009 27.6462 14.9009C27.5042 14.9009 27.2438 14.9361 27.0125 15.0537C26.9298 15.0983 26.8469 15.1497 26.7655 15.2012L26.8364 14.9186L26.7983 14.8708C26.3051 14.9739 26.1924 14.9876 25.7371 15.0537L25.7022 15.0799C25.647 15.5316 25.6021 15.871 25.4059 16.7591C25.3312 17.0864 25.2536 17.4167 25.176 17.7432L25.1969 17.7847C25.6647 17.7593 25.8044 17.7593 26.2096 17.7662ZM29.6035 17.7846C29.6325 17.6387 29.805 16.7738 29.8065 16.7738C29.8065 16.7738 29.9535 16.1392 29.9624 16.1161C29.9624 16.1161 30.0087 16.0501 30.0549 16.0239H30.1229C30.7646 16.0239 31.4892 16.0239 32.0572 15.5938C32.4436 15.2988 32.7079 14.8632 32.8257 14.3338C32.8563 14.204 32.8788 14.0497 32.8788 13.8953C32.8788 13.6925 32.8393 13.4919 32.725 13.3352C32.4354 12.9181 31.8587 12.9104 31.1929 12.9073C31.1908 12.9073 30.8647 12.9104 30.8647 12.9104C30.0125 12.9212 29.6707 12.9181 29.5303 12.9004C29.5185 12.9643 29.4961 13.078 29.4961 13.078C29.4961 13.078 29.1908 14.5344 29.1908 14.5368C29.1908 14.5368 28.4603 17.6334 28.4259 17.7793C29.17 17.77 29.4751 17.77 29.6035 17.7846ZM30.1691 15.1974C30.1691 15.1974 30.4937 13.7439 30.4922 13.7494L30.5027 13.6748L30.5073 13.618L30.637 13.6318C30.637 13.6318 31.3064 13.691 31.3221 13.6925C31.5863 13.7977 31.6952 14.0689 31.6191 14.4229C31.5498 14.7464 31.3459 15.0184 31.084 15.1498C30.8683 15.2611 30.6041 15.2703 30.3319 15.2703H30.1558L30.1691 15.1974ZM32.19 16.4503C32.1042 16.8267 32.0057 17.5142 32.6168 17.7593C32.8117 17.8446 32.9863 17.87 33.1638 17.8608C33.3512 17.8503 33.5248 17.7536 33.6857 17.6143C33.6712 17.6716 33.6566 17.7288 33.6421 17.7862L33.6698 17.823C34.1094 17.8039 34.2458 17.8039 34.7221 17.8077L34.7652 17.7738C34.8348 17.353 34.9003 16.9443 35.081 16.1392C35.1691 15.7536 35.257 15.3717 35.3473 14.9876L35.3332 14.9453C34.8415 15.0391 34.71 15.0592 34.237 15.1282L34.2011 15.1583C34.1963 15.1974 34.1914 15.235 34.1868 15.2725C34.1132 15.1502 34.0066 15.0458 33.8421 14.9807C33.6318 14.8955 33.1378 15.0053 32.7131 15.4033C32.4147 15.6875 32.2714 16.0769 32.19 16.4503ZM33.2228 16.4733C33.328 16.0094 33.449 15.6169 33.7623 15.6169C33.9604 15.6169 34.0647 15.8051 34.0435 16.126C34.0267 16.2061 34.0085 16.2904 33.9869 16.3858C33.9556 16.5237 33.9216 16.6604 33.8886 16.7972C33.8549 16.8908 33.8158 16.9791 33.7728 17.0379C33.6922 17.1555 33.5004 17.2285 33.3899 17.2285C33.3586 17.2285 33.1653 17.2285 33.1586 16.9351C33.1571 16.789 33.1863 16.6385 33.2228 16.4733ZM38.6159 14.9415L38.5779 14.8969C38.0913 14.9984 38.0033 15.0145 37.5562 15.0766L37.5234 15.1105C37.5218 15.116 37.5205 15.1244 37.5182 15.1321L37.5167 15.1244C37.1839 15.9148 37.1936 15.7443 36.9227 16.3665C36.9212 16.3382 36.9212 16.3205 36.9197 16.2904L36.8519 14.9415L36.8093 14.8969C36.2996 14.9984 36.2875 15.0145 35.8168 15.0766L35.7801 15.1105C35.775 15.1266 35.775 15.1443 35.7719 15.1636L35.775 15.1705C35.8338 15.48 35.8197 15.411 35.8787 15.8995C35.9062 16.1392 35.9429 16.3803 35.9704 16.6171C36.0168 17.0133 36.0428 17.2084 36.0995 17.8131C35.7817 18.3532 35.7064 18.5575 35.4003 19.0314L35.4024 19.0362L35.187 19.387C35.1623 19.424 35.14 19.4493 35.1086 19.4602C35.0742 19.4777 35.0295 19.4808 34.9674 19.4808H34.848L34.6706 20.0885L35.2794 20.0993C35.6369 20.0977 35.8615 19.9256 35.9824 19.6944L36.3653 19.0191H36.3592L36.3995 18.9715C36.657 18.4008 38.6159 14.9415 38.6159 14.9415ZM32.19 22.9224H31.9317L32.8877 19.6675H33.2048L33.3055 19.3322L33.3152 19.7051C33.3034 19.9356 33.4795 20.1399 33.9422 20.1061H34.4773L34.6615 19.4793H34.4601C34.3444 19.4793 34.2907 19.4492 34.2974 19.3847L34.2876 19.0054H33.2967V19.0073C32.9763 19.0142 32.0196 19.039 31.8259 19.0921C31.5915 19.1543 31.3445 19.3371 31.3445 19.3371L31.4415 19.0015H30.5146L30.3215 19.6675L29.3527 22.9722H29.1647L28.9804 23.5944H30.8266L30.7647 23.8019H31.6744L31.7348 23.5944H31.99L32.19 22.9224ZM31.4325 20.3289C31.2841 20.3712 31.0079 20.4994 31.0079 20.4994L31.2535 19.6675H31.99L31.8123 20.2736C31.8123 20.2736 31.5848 20.2874 31.4325 20.3289ZM31.4467 21.5173C31.4467 21.5173 31.2153 21.5472 31.0631 21.5826C30.9131 21.6294 30.6319 21.7769 30.6319 21.7769L30.8856 20.9112H31.6259L31.4467 21.5173ZM31.034 22.9301H30.2953L30.5094 22.1995H31.2459L31.034 22.9301ZM32.8131 20.9112H33.878L33.7249 21.4213H32.6459L32.4839 21.979H33.4281L32.7132 23.0152C32.6631 23.0913 32.6182 23.1183 32.5684 23.1397C32.5183 23.1659 32.4526 23.1966 32.3766 23.1966H32.1147L31.9347 23.8074H32.6198C32.9759 23.8074 33.1862 23.6406 33.3415 23.4217L33.8317 22.7311L33.937 23.4324C33.9593 23.5637 34.051 23.6406 34.1131 23.6705C34.1817 23.7059 34.2526 23.7667 34.3527 23.7757C34.46 23.7804 34.5376 23.7842 34.5892 23.7842H34.9258L35.1279 23.1006H34.9951C34.9189 23.1006 34.7877 23.0874 34.7653 23.0628C34.743 23.0329 34.743 22.9869 34.7309 22.9169L34.6242 22.2141H34.1869L34.3787 21.979H35.4556L35.6212 21.4213H34.6242L34.7795 20.9112H35.7734L35.9578 20.2821H32.9944L32.8131 20.9112ZM23.8193 23.0721L24.0679 22.221H25.0893L25.276 21.588H24.2535L24.4096 21.0641H25.4088L25.5939 20.4511H23.0939L22.9126 21.0641H23.4806L23.3291 21.588H22.7596L22.5709 22.2318H23.1386L22.8074 23.3579C22.7627 23.5069 22.8284 23.5638 22.87 23.633C22.9126 23.7005 22.9558 23.7451 23.0529 23.7705C23.153 23.7935 23.2216 23.8072 23.3148 23.8072H24.4664L24.6715 23.106L24.1611 23.1781C24.0625 23.1781 23.7895 23.1659 23.8193 23.0721ZM23.9365 18.9976L23.6776 19.4792C23.6222 19.5844 23.5724 19.6497 23.5275 19.6798C23.4879 19.7052 23.4096 19.7158 23.2961 19.7158H23.1611L22.9805 20.3319H23.4291C23.6448 20.3319 23.8104 20.2505 23.8895 20.2098C23.9745 20.163 23.9968 20.1898 24.0626 20.1245L24.2141 19.9894H25.6148L25.8006 19.3479H24.7753L24.9543 18.9976H23.9365ZM26.0044 23.0845C25.9805 23.0491 25.9977 22.9868 26.0342 22.857L26.417 21.5525H27.7789C27.9774 21.5496 28.1207 21.5472 28.2139 21.5403C28.314 21.5295 28.4229 21.4928 28.5416 21.4267C28.664 21.3575 28.7267 21.2845 28.7796 21.2007C28.8386 21.1171 28.9334 20.9342 29.0148 20.6522L29.496 19.0015L28.0827 19.0099C28.0827 19.0099 27.6475 19.076 27.4559 19.149C27.2626 19.2304 26.9863 19.4577 26.9863 19.4577L27.1139 19.0052H26.2409L25.0186 23.1781C24.9752 23.3402 24.9462 23.4578 24.9395 23.5284C24.9372 23.6045 25.0327 23.6798 25.0946 23.7366C25.1678 23.7935 25.2759 23.7842 25.3797 23.7935C25.4888 23.8019 25.6439 23.8072 25.858 23.8072H26.529L26.7349 23.0914L26.1343 23.1498C26.0701 23.1498 26.0237 23.1144 26.0044 23.0845ZM26.664 20.6715H28.0945L28.0036 20.9649C27.9908 20.9718 27.9602 20.9504 27.8147 20.9681H26.576L26.664 20.6715ZM26.9506 19.6874H28.3931L28.2894 20.0408C28.2894 20.0408 27.6095 20.0339 27.5006 20.0546C27.0215 20.1399 26.7416 20.4035 26.7416 20.4035L26.9506 19.6874ZM28.0356 21.9475C28.0238 21.9913 28.005 22.0181 27.9789 22.0381C27.9498 22.0574 27.9028 22.0643 27.8327 22.0643H27.6289L27.6409 21.707H26.7931L26.7587 23.4539C26.7574 23.5799 26.7692 23.6529 26.8588 23.7113C26.9484 23.7843 27.2245 23.7935 27.596 23.7935H28.1273L28.3191 23.1396L27.8566 23.1658L27.7028 23.175C27.6818 23.1658 27.6617 23.1573 27.6394 23.1343C27.6199 23.1145 27.587 23.1266 27.5924 23.0006L27.596 22.5528L28.0811 22.5322C28.343 22.5322 28.4549 22.4444 28.5505 22.3609C28.6416 22.2808 28.6714 22.1888 28.7058 22.0643L28.7872 21.6678H28.1206L28.0356 21.9475Z" fill="#FEFEFE"/>
</svg>
