<svg width="51" height="36" viewBox="0 0 51 36" fill="none" xmlns="http://www.w3.org/2000/svg">
<rect x="1.6181" y="1.17865" width="48.2713" height="33.6436" rx="5.11968" fill="white"/>
<rect x="1.6181" y="1.17865" width="48.2713" height="33.6436" rx="5.11968" stroke="#F9F7F6" stroke-width="1.46277"/>
<path d="M35.7005 16.2143C35.5979 15.5809 35.0339 15.1586 34.2648 15.1586C34.0084 15.1586 33.8033 15.1586 33.5469 15.1586C33.0854 15.1058 32.9829 15.2642 32.9829 15.6337C32.9829 17.4811 32.9829 19.2757 32.9829 21.1232C32.9829 22.0733 32.0599 23.0762 30.9831 23.2873C27.599 24.079 24.2148 24.818 20.8306 25.6098C20.4717 25.7153 20.0615 25.7153 19.6513 25.7153C19.4975 25.7153 19.2411 25.6098 19.1898 25.4514C19.1385 25.3458 19.2924 25.1347 19.3949 25.0291C19.5487 24.9236 19.7538 24.818 19.9589 24.7124C20.5742 24.5013 21.2408 24.2902 21.8561 24.079C24.3686 23.2345 26.8811 22.39 29.3936 21.4926C30.5217 21.1232 31.137 20.3314 31.137 19.3285C31.1882 16.1615 31.137 12.9417 31.137 9.77471C31.137 9.24687 30.8806 8.82461 30.3166 8.61347C29.65 8.34955 29.0347 8.56069 28.4706 8.8246C24.8814 10.5665 21.3434 12.3083 17.7541 14.0502C16.7286 14.578 16.1133 15.317 16.1133 16.3726C16.1133 19.3813 16.1133 22.39 16.1133 25.3986C16.1133 25.557 16.1133 25.7153 16.1645 25.8209C16.5235 26.8238 17.4464 27.4572 18.6771 27.4572C21.1895 27.4572 23.702 27.4572 26.2145 27.4572C28.727 27.4572 31.1882 27.4572 33.7007 27.4572C34.2648 27.4572 34.7262 27.3516 35.1364 26.9821C35.6492 26.5599 35.6492 25.9792 35.6492 25.4514C35.6492 22.8546 35.7005 16.2143 35.7005 16.2143ZM25.2403 15.2642C25.4967 14.578 26.0607 14.1557 26.8811 14.0502C27.4451 13.9974 27.9066 14.3141 28.0092 14.8419C28.1117 15.6337 27.1888 16.5838 26.2145 16.5838C25.4454 16.5838 24.9839 16.0032 25.2403 15.2642Z" fill="#FD6727"/>
</svg>
