<svg width="51" height="36" viewBox="0 0 51 36" fill="none" xmlns="http://www.w3.org/2000/svg">
<rect x="1.2431" y="1.17865" width="48.2713" height="33.6436" rx="5.11968" fill="white"/>
<rect x="1.2431" y="1.17865" width="48.2713" height="33.6436" rx="5.11968" stroke="#F9F7F6" stroke-width="1.46277"/>
<path d="M22.7326 20.7148C22.6332 20.7677 22.5213 20.7983 22.4024 20.7983C22.127 20.7983 21.8876 20.6387 21.762 20.4023L21.7138 20.2914L19.709 15.655C19.6873 15.6046 19.6739 15.5475 19.6739 15.492C19.6739 15.2784 19.8383 15.1053 20.0411 15.1053C20.1233 15.1053 20.1995 15.134 20.2607 15.182L22.6266 16.9572C22.7994 17.0762 23.0059 17.1461 23.228 17.1461C23.3605 17.1461 23.4868 17.1202 23.6046 17.0749L34.7305 11.8565C32.7362 9.3796 29.4518 7.76074 25.735 7.76074C19.6528 7.76074 14.7227 12.0906 14.7227 17.4322C14.7227 20.3461 16.206 22.9693 18.5277 24.7424C18.7139 24.8825 18.8359 25.1128 18.8359 25.3726C18.8359 25.4586 18.8184 25.537 18.7971 25.6189C18.6117 26.3478 18.3149 27.5152 18.3011 27.5699C18.2779 27.6614 18.2418 27.757 18.2418 27.8527C18.2418 28.0664 18.4061 28.2395 18.6091 28.2395C18.6887 28.2395 18.7538 28.2082 18.8211 28.1675L21.2319 26.7005C21.4133 26.5904 21.6053 26.5219 21.8169 26.5219C21.9294 26.5219 22.0381 26.5403 22.1404 26.5733C23.2651 26.9142 24.4786 27.1036 25.7351 27.1036C31.8169 27.1036 36.7477 22.7735 36.7477 17.4322C36.7477 15.8143 36.2928 14.2906 35.4932 12.9503L22.8133 20.6658L22.7326 20.7148Z" fill="#1AAD19"/>
</svg>
