<svg width="36" height="35" viewBox="0 0 36 35" fill="none" xmlns="http://www.w3.org/2000/svg">
<path d="M12.5665 17.0074H5.83997C5.95471 10.3095 7.27421 9.2051 11.3905 6.7669C11.8638 6.48005 12.0215 5.87767 11.7347 5.39003C11.4622 4.91673 10.8455 4.75896 10.3722 5.04581C5.52443 7.91429 3.83203 9.66406 3.83203 17.997V25.7275C3.83203 28.1801 5.82562 30.1593 8.26383 30.1593H12.5665C15.0908 30.1593 16.9983 28.2518 16.9983 25.7275V21.4248C16.9983 18.9149 15.0908 17.0074 12.5665 17.0074Z" fill="#262626"/>
<path d="M28.0848 17.0074H21.3582C21.473 10.3095 22.7925 9.2051 26.9087 6.7669C27.382 6.48005 27.5398 5.87767 27.2529 5.39003C26.9661 4.91673 26.3637 4.75896 25.8761 5.04581C21.0283 7.91429 19.3359 9.66406 19.3359 18.0113V25.7419C19.3359 28.1944 21.3295 30.1737 23.7677 30.1737H28.0705C30.5947 30.1737 32.5023 28.2661 32.5023 25.7419V21.4392C32.5166 18.9149 30.6091 17.0074 28.0848 17.0074Z" fill="#262626"/>
</svg>
