<svg width="36" height="35" viewBox="0 0 36 35" fill="none" xmlns="http://www.w3.org/2000/svg">
<path d="M12.4494 17.0074H5.72278C5.83752 10.3095 7.15702 9.2051 11.2733 6.7669C11.7466 6.48005 11.9043 5.87767 11.6175 5.39003C11.345 4.91673 10.7283 4.75896 10.255 5.04581C5.40725 7.91429 3.71484 9.66406 3.71484 17.997V25.7275C3.71484 28.1801 5.70844 30.1593 8.14664 30.1593H12.4494C14.9736 30.1593 16.8812 28.2518 16.8812 25.7275V21.4248C16.8812 18.9149 14.9736 17.0074 12.4494 17.0074Z" fill="white"/>
<path d="M27.9676 17.0074H21.241C21.3558 10.3095 22.6753 9.2051 26.7915 6.7669C27.2648 6.48005 27.4226 5.87767 27.1357 5.39003C26.8489 4.91673 26.2465 4.75896 25.7589 5.04581C20.9112 7.91429 19.2188 9.66406 19.2188 18.0113V25.7419C19.2188 28.1944 21.2123 30.1737 23.6505 30.1737H27.9533C30.4775 30.1737 32.3851 28.2661 32.3851 25.7419V21.4392C32.3994 18.9149 30.4919 17.0074 27.9676 17.0074Z" fill="white"/>
</svg>
