<svg width="36" height="36" viewBox="0 0 36 36" fill="none" xmlns="http://www.w3.org/2000/svg">
<path d="M23.6678 18.3364H30.3944C30.2797 25.0343 28.9602 26.1386 24.8439 28.5769C24.3706 28.8637 24.2128 29.4661 24.4997 29.9537C24.7722 30.427 25.3889 30.5848 25.8622 30.2979C30.7099 27.4295 32.4023 25.6797 32.4023 17.3468V9.61621C32.4023 7.16366 30.4088 5.18441 27.9705 5.18441H23.6678C21.1436 5.18441 19.236 7.09195 19.236 9.61621V13.9189C19.236 16.4288 21.1436 18.3364 23.6678 18.3364Z" fill="white"/>
<path d="M8.14958 18.3364H14.8762C14.7614 25.0343 13.4419 26.1386 9.32565 28.5769C8.85236 28.8637 8.69459 29.4661 8.98144 29.9537C9.26829 30.427 9.87067 30.5848 10.3583 30.2979C15.206 27.4295 16.8984 25.6797 16.8984 17.3324V9.60187C16.8984 7.14932 14.9048 5.17007 12.4666 5.17007H8.16392C5.63966 5.17007 3.73212 7.07761 3.73212 9.60187V13.9046C3.71778 16.4288 5.62532 18.3364 8.14958 18.3364Z" fill="white"/>
</svg>
