<svg width="36" height="36" viewBox="0 0 36 36" fill="none" xmlns="http://www.w3.org/2000/svg">
<path d="M23.785 18.3364H30.5116C30.3969 25.0343 29.0774 26.1386 24.9611 28.5769C24.4878 28.8637 24.33 29.4661 24.6169 29.9537C24.8894 30.427 25.5061 30.5848 25.9794 30.2979C30.8271 27.4295 32.5195 25.6797 32.5195 17.3468V9.61621C32.5195 7.16366 30.5259 5.18441 28.0877 5.18441H23.785C21.2608 5.18441 19.3532 7.09195 19.3532 9.61621V13.9189C19.3532 16.4288 21.2608 18.3364 23.785 18.3364Z" fill="#262626"/>
<path d="M8.26677 18.3364H14.9933C14.8786 25.0343 13.5591 26.1386 9.44284 28.5769C8.96954 28.8637 8.81178 29.4661 9.09863 29.9537C9.38547 30.427 9.98785 30.5848 10.4755 30.2979C15.3232 27.4295 17.0156 25.6797 17.0156 17.3324V9.60187C17.0156 7.14932 15.022 5.17007 12.5838 5.17007H8.28111C5.75685 5.17007 3.84931 7.07761 3.84931 9.60187V13.9046C3.83497 16.4288 5.74251 18.3364 8.26677 18.3364Z" fill="#262626"/>
</svg>
