<svg width="41" height="40" viewBox="0 0 41 40" fill="none" xmlns="http://www.w3.org/2000/svg">
<g clip-path="url(#clip0_219_2642)">
<path d="M6.6875 7.38672H9.22569C10.3588 7.38672 10.9253 7.38672 11.3518 7.69414C11.7783 8.00155 11.9575 8.53901 12.3158 9.61394L13.202 12.2726" stroke="white" stroke-width="1.62863" stroke-linecap="round"/>
<path d="M29.4891 28.5587H14.1001C13.862 28.5587 13.7429 28.5587 13.6526 28.5486C12.6956 28.4415 12.0401 27.5319 12.2411 26.5902C12.26 26.5013 12.2977 26.3884 12.373 26.1625V26.1625C12.4566 25.9117 12.4984 25.7863 12.5445 25.6757C13.0173 24.5428 14.0868 23.7719 15.3111 23.6817C15.4306 23.6729 15.5628 23.6729 15.8272 23.6729H24.6032" stroke="white" stroke-width="1.62863" stroke-linecap="round" stroke-linejoin="round"/>
<path d="M24.0797 23.6729H19.1268C17.0435 23.6729 16.0018 23.6729 15.1859 23.1349C14.3701 22.5969 13.9597 21.6395 13.1391 19.7245L12.8641 19.083C11.5457 16.0068 10.8866 14.4687 11.6107 13.3706C12.3348 12.2725 14.0082 12.2725 17.3549 12.2725H25.9555C29.6998 12.2725 31.5719 12.2725 32.278 13.4892C32.9841 14.706 32.0553 16.3315 30.1976 19.5824L29.7359 20.3905C28.8207 21.992 28.3631 22.7928 27.6049 23.2328C26.8466 23.6729 25.9243 23.6729 24.0797 23.6729Z" stroke="white" stroke-width="1.62863" stroke-linecap="round"/>
<circle cx="28.6755" cy="32.6306" r="1.62863" fill="white"/>
<circle cx="15.6482" cy="32.6306" r="1.62863" fill="white"/>
</g>
<defs>
<clipPath id="clip0_219_2642">
<rect width="39.0871" height="39.0871" fill="white" transform="translate(0.988281 0.0576172)"/>
</clipPath>
</defs>
</svg>
