<svg width="16" height="17" viewBox="0 0 16 17" fill="none" xmlns="http://www.w3.org/2000/svg">
<g clip-path="url(#clip0_219_3437)">
<path d="M2 6.16699C2 4.51014 3.34315 3.16699 5 3.16699H11C12.6569 3.16699 14 4.51014 14 6.16699V6.66699C14 6.94313 13.7761 7.16699 13.5 7.16699H13.3333C12.597 7.16699 12 7.76395 12 8.50033V8.50033C12 9.2367 12.597 9.83366 13.3333 9.83366H13.5C13.7761 9.83366 14 10.0575 14 10.3337V10.8337C14 12.4905 12.6569 13.8337 11 13.8337H5C3.34315 13.8337 2 12.4905 2 10.8337V10.3337C2 10.0575 2.22386 9.83366 2.5 9.83366H2.66667C3.40305 9.83366 4 9.2367 4 8.50033V8.50033C4 7.76395 3.40305 7.16699 2.66667 7.16699H2.5C2.22386 7.16699 2 6.94313 2 6.66699V6.16699Z" stroke="#1D1D1D"/>
<path d="M7.70581 7.62602C7.81789 7.33604 7.87394 7.19105 7.96499 7.17096C7.98893 7.16567 8.01367 7.16567 8.03762 7.17096C8.12867 7.19105 8.18471 7.33604 8.29679 7.62602C8.36054 7.79093 8.39241 7.87339 8.45204 7.92947C8.46877 7.9452 8.48693 7.95921 8.50626 7.9713C8.57518 8.01441 8.66123 8.02241 8.83331 8.0384C9.12463 8.06548 9.27028 8.07902 9.31476 8.1652C9.32398 8.18305 9.33024 8.20238 9.33329 8.22238C9.34804 8.31894 9.24096 8.42004 9.0268 8.62224L8.96733 8.67839C8.86721 8.77292 8.81715 8.82019 8.78819 8.87917C8.77082 8.91456 8.75918 8.95266 8.75372 8.99197C8.74462 9.05749 8.75928 9.12606 8.7886 9.2632L8.79907 9.3122C8.85165 9.55813 8.87794 9.68109 8.84513 9.74154C8.81565 9.79583 8.76135 9.83059 8.70137 9.83356C8.63459 9.83687 8.5405 9.7573 8.35232 9.59817C8.22834 9.49333 8.16635 9.44091 8.09753 9.42043C8.03465 9.40172 7.96796 9.40172 7.90507 9.42043C7.83625 9.44091 7.77426 9.49333 7.65028 9.59817C7.4621 9.7573 7.36801 9.83687 7.30124 9.83356C7.24126 9.83059 7.18696 9.79583 7.15748 9.74154C7.12466 9.68109 7.15095 9.55813 7.20353 9.3122L7.214 9.2632C7.24332 9.12606 7.25798 9.05749 7.24889 8.99197C7.24343 8.95266 7.23178 8.91456 7.21441 8.87917C7.18546 8.82019 7.1354 8.77292 7.03527 8.67839L6.9758 8.62224C6.76164 8.42004 6.65456 8.31894 6.66931 8.22238C6.67236 8.20238 6.67863 8.18305 6.68784 8.1652C6.73232 8.07902 6.87798 8.06548 7.16929 8.0384C7.34138 8.02241 7.42742 8.01441 7.49635 7.9713C7.51568 7.95921 7.53384 7.9452 7.55056 7.92947C7.6102 7.87339 7.64207 7.79093 7.70581 7.62602Z" fill="#1D1D1D" stroke="#1D1D1D"/>
</g>
<defs>
<clipPath id="clip0_219_3437">
<rect width="16" height="16" fill="white" transform="translate(0 0.5)"/>
</clipPath>
</defs>
</svg>
