<svg width="24" height="25" viewBox="0 0 24 25" fill="none" xmlns="http://www.w3.org/2000/svg">
<g clip-path="url(#clip0_219_1337)">
<path d="M3.5 4.57812H5.05848C5.7542 4.57812 6.10206 4.57812 6.36395 4.76688C6.62584 4.95564 6.73584 5.28565 6.95585 5.94567L7.5 7.57812" stroke="white" stroke-linecap="round"/>
<path d="M17.5 17.5781H8.05091C7.90471 17.5781 7.83162 17.5781 7.77616 17.5719C7.18857 17.5061 6.78605 16.9477 6.90945 16.3694C6.92109 16.3148 6.94421 16.2455 6.99044 16.1068V16.1068C7.04177 15.9528 7.06743 15.8758 7.09579 15.8079C7.38607 15.1123 8.04277 14.639 8.79448 14.5835C8.8679 14.5781 8.94906 14.5781 9.11137 14.5781H14.5" stroke="white" stroke-linecap="round" stroke-linejoin="round"/>
<path d="M14.1787 14.5781H11.1376C9.85836 14.5781 9.21875 14.5781 8.71781 14.2478C8.21687 13.9175 7.96492 13.3296 7.461 12.1538L7.29218 11.7599C6.48269 9.87106 6.07794 8.92665 6.52255 8.25239C6.96715 7.57812 7.99464 7.57812 10.0496 7.57812H15.3305C17.6295 7.57812 18.779 7.57812 19.2126 8.32523C19.6462 9.07234 19.0758 10.0704 17.9352 12.0665L17.6517 12.5627C17.0897 13.5461 16.8088 14.0378 16.3432 14.3079C15.8776 14.5781 15.3113 14.5781 14.1787 14.5781Z" stroke="white" stroke-linecap="round"/>
<circle cx="17" cy="20.0781" r="1" fill="white"/>
<circle cx="9" cy="20.0781" r="1" fill="white"/>
</g>
<defs>
<clipPath id="clip0_219_1337">
<rect width="24" height="24" fill="white" transform="translate(0 0.078125)"/>
</clipPath>
</defs>
</svg>
