<svg width="25" height="25" viewBox="0 0 25 25" fill="none" xmlns="http://www.w3.org/2000/svg">
<g clip-path="url(#clip0_219_1500)">
<path d="M4 4.61621H5.55848C6.2542 4.61621 6.60206 4.61621 6.86395 4.80497C7.12584 4.99373 7.23584 5.32374 7.45585 5.98376L8 7.61621" stroke="white" stroke-linecap="round"/>
<path d="M18 17.6162H8.55091C8.40471 17.6162 8.33162 17.6162 8.27616 17.61C7.68857 17.5442 7.28605 16.9857 7.40945 16.4075C7.42109 16.3529 7.44421 16.2836 7.49044 16.1449V16.1449C7.54177 15.9909 7.56743 15.9139 7.59579 15.846C7.88607 15.1504 8.54277 14.677 9.29448 14.6216C9.3679 14.6162 9.44906 14.6162 9.61137 14.6162H15" stroke="white" stroke-linecap="round" stroke-linejoin="round"/>
<path d="M14.6787 14.6162H11.6376C10.3584 14.6162 9.71875 14.6162 9.21781 14.2859C8.71687 13.9556 8.46492 13.3677 7.961 12.1919L7.79218 11.798C6.98269 9.90915 6.57794 8.96474 7.02255 8.29047C7.46715 7.61621 8.49464 7.61621 10.5496 7.61621H15.8305C18.1295 7.61621 19.279 7.61621 19.7126 8.36332C20.1462 9.11043 19.5758 10.1085 18.4352 12.1046L18.1517 12.6008C17.5897 13.5842 17.3088 14.0759 16.8432 14.346C16.3776 14.6162 15.8113 14.6162 14.6787 14.6162Z" stroke="white" stroke-linecap="round"/>
<circle cx="17.5" cy="20.1162" r="1" fill="white"/>
<circle cx="9.5" cy="20.1162" r="1" fill="white"/>
</g>
<defs>
<clipPath id="clip0_219_1500">
<rect width="24" height="24" fill="white" transform="translate(0.5 0.116211)"/>
</clipPath>
</defs>
</svg>
