<svg width="41" height="40" viewBox="0 0 41 40" fill="none" xmlns="http://www.w3.org/2000/svg">
<g clip-path="url(#clip0_219_2640)">
<path d="M6.62891 7.38672H9.16709C10.3002 7.38672 10.8667 7.38672 11.2932 7.69414C11.7197 8.00155 11.8989 8.53901 12.2572 9.61394L13.1434 12.2726" stroke="white" stroke-width="1.62863" stroke-linecap="round"/>
<path d="M29.4305 28.5587H14.0415C13.8034 28.5587 13.6843 28.5587 13.594 28.5486C12.6371 28.4415 11.9815 27.5319 12.1825 26.5902C12.2014 26.5013 12.2391 26.3884 12.3144 26.1625V26.1625C12.398 25.9117 12.4398 25.7863 12.4859 25.6757C12.9587 24.5428 14.0282 23.7719 15.2525 23.6817C15.3721 23.6729 15.5042 23.6729 15.7686 23.6729H24.5447" stroke="white" stroke-width="1.62863" stroke-linecap="round" stroke-linejoin="round"/>
<path d="M24.0211 23.6729H19.0682C16.9849 23.6729 15.9432 23.6729 15.1273 23.1349C14.3115 22.5969 13.9011 21.6395 13.0805 19.7245L12.8055 19.083C11.4872 16.0068 10.828 14.4687 11.5521 13.3706C12.2762 12.2725 13.9496 12.2725 17.2964 12.2725H25.8969C29.6412 12.2725 31.5133 12.2725 32.2194 13.4892C32.9256 14.706 31.9967 16.3315 30.139 19.5824L29.6773 20.3905C28.7621 21.992 28.3045 22.7928 27.5463 23.2328C26.788 23.6729 25.8657 23.6729 24.0211 23.6729Z" stroke="white" stroke-width="1.62863" stroke-linecap="round"/>
<circle cx="28.6169" cy="32.6306" r="1.62863" fill="white"/>
<circle cx="15.5857" cy="32.6306" r="1.62863" fill="white"/>
</g>
<defs>
<clipPath id="clip0_219_2640">
<rect width="39.0871" height="39.0871" fill="white" transform="translate(0.929688 0.0576172)"/>
</clipPath>
</defs>
</svg>
