<svg width="16" height="17" viewBox="0 0 16 17" fill="none" xmlns="http://www.w3.org/2000/svg">
<g clip-path="url(#clip0_219_894)">
<path d="M2 5.79199C2 4.13514 3.34315 2.79199 5 2.79199H11C12.6569 2.79199 14 4.13514 14 5.79199V6.29199C14 6.56813 13.7761 6.79199 13.5 6.79199H13.3333C12.597 6.79199 12 7.38895 12 8.12533V8.12533C12 8.8617 12.597 9.45866 13.3333 9.45866H13.5C13.7761 9.45866 14 9.68252 14 9.95866V10.4587C14 12.1155 12.6569 13.4587 11 13.4587H5C3.34315 13.4587 2 12.1155 2 10.4587V9.95866C2 9.68252 2.22386 9.45866 2.5 9.45866H2.66667C3.40305 9.45866 4 8.8617 4 8.12533V8.12533C4 7.38895 3.40305 6.79199 2.66667 6.79199H2.5C2.22386 6.79199 2 6.56813 2 6.29199V5.79199Z" stroke="#1D1D1D"/>
<path d="M7.70581 7.25102C7.81789 6.96104 7.87394 6.81605 7.96499 6.79596C7.98893 6.79067 8.01367 6.79067 8.03762 6.79596C8.12867 6.81605 8.18471 6.96104 8.29679 7.25102C8.36054 7.41593 8.39241 7.49839 8.45204 7.55447C8.46877 7.5702 8.48693 7.58421 8.50626 7.5963C8.57518 7.63941 8.66123 7.64741 8.83331 7.6634C9.12463 7.69048 9.27028 7.70402 9.31476 7.7902C9.32398 7.80805 9.33024 7.82738 9.33329 7.84738C9.34804 7.94394 9.24096 8.04504 9.0268 8.24724L8.96733 8.30339C8.86721 8.39792 8.81715 8.44519 8.78819 8.50417C8.77082 8.53956 8.75917 8.57766 8.75372 8.61697C8.74462 8.68249 8.75928 8.75106 8.7886 8.8882L8.79907 8.9372C8.85165 9.18313 8.87794 9.30609 8.84513 9.36654C8.81565 9.42083 8.76135 9.45559 8.70137 9.45856C8.63459 9.46187 8.5405 9.3823 8.35232 9.22317C8.22834 9.11833 8.16635 9.06591 8.09753 9.04543C8.03465 9.02672 7.96796 9.02672 7.90507 9.04543C7.83625 9.06591 7.77426 9.11833 7.65028 9.22317C7.4621 9.3823 7.36801 9.46187 7.30124 9.45856C7.24126 9.45559 7.18696 9.42083 7.15748 9.36654C7.12466 9.30609 7.15095 9.18313 7.20353 8.9372L7.214 8.8882C7.24332 8.75106 7.25798 8.68249 7.24889 8.61697C7.24343 8.57766 7.23178 8.53956 7.21441 8.50417C7.18546 8.44519 7.1354 8.39792 7.03527 8.30339L6.9758 8.24724C6.76164 8.04504 6.65456 7.94394 6.66931 7.84738C6.67236 7.82738 6.67863 7.80805 6.68784 7.7902C6.73232 7.70402 6.87798 7.69048 7.16929 7.6634C7.34138 7.64741 7.42742 7.63941 7.49635 7.5963C7.51568 7.58421 7.53384 7.5702 7.55056 7.55447C7.6102 7.49839 7.64207 7.41593 7.70581 7.25102Z" fill="#1D1D1D" stroke="#1D1D1D"/>
</g>
<defs>
<clipPath id="clip0_219_894">
<rect width="16" height="16" fill="white" transform="translate(0 0.125)"/>
</clipPath>
</defs>
</svg>
