<svg width="35" height="39" viewBox="0 0 35 39" fill="none" xmlns="http://www.w3.org/2000/svg">
<path fill-rule="evenodd" clip-rule="evenodd" d="M5.1501 1.17083C3.93838 2.49605 4.3502 4.01752 6.54118 6.31048C7.86349 7.69461 7.85142 7.71332 5.15854 8.43346C2.41217 9.16871 1.96497 9.88327 3.78194 10.6349C4.57581 10.9633 5.40024 11.232 5.61339 11.232C5.82694 11.232 8.22302 11.859 10.9384 12.6253C13.6538 13.3916 16.4995 14.0186 17.262 14.0186C18.0245 14.0186 21.1087 13.3271 24.1153 12.4816C27.1222 11.6364 30.2157 10.7786 30.9898 10.5759C33.1953 9.99792 32.7372 9.1711 29.7065 8.25949L27.0157 7.45019L28.6006 5.77386C30.4023 3.86824 30.6753 2.24048 29.3876 1.08684C28.1888 0.0128088 24.5902 0.453885 21.3154 2.07607C19.8902 2.78187 18.4074 3.63616 18.0201 3.97373C17.3851 4.52786 17.2467 4.52588 16.6061 3.95184C15.1507 2.64812 10.3002 0.7206 8.07261 0.561367C6.25926 0.431592 5.72398 0.543055 5.1501 1.17083ZM6.45793 2.84159C6.45793 3.6903 8.71325 5.75515 11.0571 7.05251C12.4409 7.81882 13.7367 8.4442 13.9365 8.44301C14.4766 8.43903 15.7511 6.05013 15.4607 5.58557C15.3232 5.36503 13.9249 4.57484 12.3536 3.82923C9.62818 2.53626 6.45793 2.00521 6.45793 2.84159ZM23.6757 3.24086C20.5887 4.43591 18.8361 5.65922 19.147 6.40283C19.2962 6.75992 19.5129 7.37893 19.6287 7.77821C19.7904 8.33831 20.0796 8.445 20.8899 8.24556C23.5032 7.60146 28.1747 4.13615 28.1747 2.84159C28.1747 2.23929 25.6958 2.45903 23.6757 3.24086ZM16.7686 8.24636C16.6121 8.65041 16.7891 8.84348 17.3163 8.84348C17.8436 8.84348 18.0205 8.65041 17.8641 8.24636C17.7366 7.91794 17.49 7.64923 17.3163 7.64923C17.1426 7.64923 16.8961 7.91794 16.7686 8.24636ZM0.544935 12.6917C0.293985 13.3398 1.16225 31.8845 1.46709 32.3833C1.64686 32.6771 6.28902 34.8837 11.5791 37.1894C14.6427 38.5245 15.3992 38.72 15.9023 38.3068C16.4199 37.8816 16.512 36.1595 16.512 26.8977V15.9891L15.4648 15.595C14.2197 15.1264 1.8596 12.0281 1.23545 12.0281C0.997367 12.0281 0.686496 12.3267 0.544935 12.6917ZM25.2437 13.9513C21.424 15.003 18.3269 16.0691 18.1114 16.4071C17.8974 16.7426 17.7281 21.5722 17.7245 27.4399C17.7189 37.3972 17.7547 37.8948 18.5059 38.2929C19.1534 38.6356 20.4741 38.1245 25.927 35.4207C29.575 33.6114 32.6741 31.8626 32.8132 31.5342C32.9528 31.2058 33.3155 27.8022 33.6204 23.9706C33.9248 20.1391 34.2751 16.1762 34.3986 15.1638C34.6929 12.7542 34.376 12.0206 33.0582 12.0604C32.4734 12.0779 28.9569 12.929 25.2437 13.9513Z" fill="#374375"/>
</svg>
